<svg width="459" height="316" viewBox="0 0 459 316" fill="none" xmlns="http://www.w3.org/2000/svg">
<path d="M84 85.9998L117.5 212C117.5 212 170.896 212.306 222 212.495C263.28 212.647 303.063 212.723 312 212.5C332 212 340.49 208.524 346.5 194C358.5 165 377.5 118 380.5 110.5L380.572 110.319C383.609 102.731 390.305 86 366 86L84 85.9998Z" fill="#EAEAEA"/>
<path d="M255.5 105C249 133 236.869 191.874 233.5 201.5C230 211.5 225.167 213 222 212.5V212.495M222 212.495C263.28 212.647 303.063 212.723 312 212.5C332 212 340.49 208.524 346.5 194C358.5 165 377.5 118 380.5 110.5L380.572 110.319C383.609 102.731 390.305 86 366 86L84 85.9998L117.5 212C117.5 212 170.896 212.306 222 212.495Z" stroke="#B8B8B8" stroke-width="4" stroke-linecap="round"/>
<path d="M118 110.5L123.5 132" stroke="#B8B8B8" stroke-width="4" stroke-linecap="round"/>
<path d="M129 153L137.5 187" stroke="#B8B8B8" stroke-width="4" stroke-linecap="round"/>
<path d="M206 110.5L203 186M163.5 110.5L171.5 186" stroke="#B8B8B8" stroke-width="4" stroke-linecap="round"/>
<circle cx="188" cy="11" r="11" fill="#EAEAEA"/>
<circle cx="27" cy="126" r="12" fill="#EAEAEA"/>
<circle cx="411.5" cy="208.5" r="19.5" fill="#EAEAEA"/>
<circle cx="373.5" cy="230.5" r="9.5" fill="#EAEAEA"/>
<path d="M274.525 41.537C273.946 41.4137 273.946 40.5863 274.525 40.463L283.291 38.5989C283.502 38.554 283.668 38.3894 283.713 38.1783L285.601 29.4744C285.726 28.8975 286.549 28.8975 286.674 29.4744L288.561 38.1783C288.607 38.3894 288.772 38.554 288.984 38.5989L297.749 40.463C298.329 40.5863 298.329 41.4137 297.749 41.537L288.984 43.4011C288.772 43.446 288.607 43.6106 288.561 43.8217L286.674 52.5256C286.549 53.1025 285.726 53.1025 285.601 52.5256L283.713 43.8217C283.668 43.6106 283.502 43.446 283.291 43.4011L274.525 41.537Z" fill="#B8B8B8"/>
<path d="M24.2229 193.622C24.4467 192.565 25.9558 192.565 26.1796 193.622L29.5224 209.415C29.6038 209.799 29.9034 210.101 30.2878 210.185L45.9173 213.589C46.9669 213.818 46.9668 215.315 45.9173 215.544L30.2878 218.948C29.9034 219.032 29.6038 219.334 29.5224 219.718L26.1796 235.511C25.9558 236.568 24.4467 236.568 24.2229 235.511L20.8801 219.718C20.7986 219.334 20.499 219.032 20.1146 218.948L4.48513 215.544C3.4356 215.315 3.43561 213.818 4.48513 213.589L20.1146 210.185C20.499 210.101 20.7986 209.799 20.8801 209.415L24.2229 193.622Z" fill="#B8B8B8"/>
<path d="M428.345 130.622C428.568 129.565 430.078 129.565 430.301 130.622L432.251 139.835C432.333 140.22 432.633 140.521 433.017 140.605L442.161 142.597C443.21 142.826 443.21 144.323 442.161 144.551L433.017 146.543C432.633 146.627 432.333 146.928 432.251 147.313L430.301 156.526C430.078 157.583 428.568 157.583 428.345 156.526L426.395 147.313C426.313 146.928 426.014 146.627 425.629 146.543L416.485 144.551C415.436 144.323 415.436 142.826 416.485 142.597L425.629 140.605C426.014 140.521 426.313 140.22 426.395 139.835L428.345 130.622Z" fill="#B8B8B8"/>
<path d="M11.7367 31.4999C5.23625 28.2499 3.23571 13 20.2365 14.5C20.2365 14.5 23.0189 15.1421 27.2363 16.1568C34.1836 17.8283 45.0247 20.511 53.7363 23C62.205 25.4196 66.234 29.5814 68.6876 34C70.2901 36.8861 71.2486 39.9319 72.2363 42.5C74.7363 49 109.236 181.5 114.236 199C119.236 216.5 116.736 219.5 113.736 225.5C110.736 231.5 92.7363 260 92.7363 260C90.7841 261.808 86.8087 264.376 84 267C80.3345 270.424 77.9529 273.821 77.5 274.5C70 268.5 73.7363 259 75.2363 254.5C76.7363 250 88.7363 230.5 92.7363 223C96.7363 215.5 98.7363 211.5 94.7363 199C90.7363 186.5 59.2363 69 56.2365 56.5C53.2367 43.9999 51.2363 43 41.2364 39.4999C35.3989 37.4568 18.2371 34.75 11.7367 31.4999Z" fill="#EAEAEA"/>
<path d="M27.2363 16.1568C27.2363 16.1568 93.7363 16.4999 124.236 16.5C138.808 16.5 150.835 22.7773 155.736 36.5C160.736 50.5 169.736 85.5 169.736 85.5L150.736 86C150.736 86 142.236 56 139.736 48.5C137.236 41 133.736 34 119.236 34H68.6876M27.2363 16.1568C23.0189 15.1421 20.2365 14.5 20.2365 14.5C3.23571 13 5.23625 28.2499 11.7367 31.4999C18.2371 34.75 35.3989 37.4568 41.2364 39.4999C51.2363 43 53.2367 43.9999 56.2365 56.5C59.2363 69 90.7363 186.5 94.7363 199C98.7363 211.5 96.7363 215.5 92.7363 223C88.7363 230.5 76.7363 250 75.2363 254.5C73.7363 259 70 268.5 77.5 274.5C77.9529 273.821 80.3345 270.424 84 267C86.8087 264.376 90.7841 261.808 92.7363 260C92.7363 260 110.736 231.5 113.736 225.5C116.736 219.5 119.236 216.5 114.236 199C109.236 181.5 74.7363 49 72.2363 42.5C71.2486 39.9319 70.2901 36.8861 68.6876 34M27.2363 16.1568C34.1836 17.8283 45.0247 20.511 53.7363 23C62.205 25.4196 66.234 29.5814 68.6876 34" stroke="#B8B8B8" stroke-width="4" stroke-linecap="round"/>
<path d="M155.5 36.3432C160.5 50.3432 169.5 85.3432 169.5 85.3432L150.5 85.8432C150.5 85.8432 142 55.8432 139.5 48.3432C137 40.8432 133.5 33.8432 119 33.8432H68.4512C65.9976 29.4246 61.9687 25.2628 53.5 22.8432C44.7884 20.3542 33.9473 17.6715 27 16C27 16 93.5 16.3431 124 16.3432C138.572 16.3432 150.599 22.6205 155.5 36.3432Z" fill="#EAEAEA" stroke="#B8B8B8" stroke-width="4" stroke-linecap="round"/>
<path d="M181.784 247C185.811 232.5 190.167 225.5 195 213H215.5C211.333 224 203.284 243.5 200.284 253C197.284 262.5 197.5 270.667 198 272.5H179.284C179.284 267.833 177.757 261.5 181.784 247Z" fill="#EAEAEA" stroke="#B8B8B8" stroke-width="4" stroke-linecap="round"/>
<path d="M332.5 272C315 271.5 122 272 122 272L125 291.5L332.5 291.5C347 291.5 350 272.5 332.5 272Z" fill="#EAEAEA" stroke="#B8B8B8" stroke-width="4" stroke-linecap="round"/>
<path d="M101 260C115.036 260 125.5 273.234 125.5 288.5C125.5 303.484 115.289 314 101 314C86.7062 314 75 301.978 75 287C75 272.022 86.7062 260 101 260Z" fill="#EAEAEA" stroke="#B8B8B8" stroke-width="4"/>
<path d="M96.8507 258.507C96.0264 258.59 95.425 259.325 95.5074 260.149C95.5899 260.974 96.3249 261.575 97.1493 261.493L97 260L96.8507 258.507ZM122.5 288.5H121C121 303.659 108.754 313.878 95.7121 312.015L95.5 313.5L95.2879 314.985C110.246 317.122 124 305.373 124 288.5H122.5ZM97 260L97.1493 261.493C104.098 260.798 110.008 263.669 114.231 268.651C118.474 273.659 121 280.804 121 288.5H122.5H124C124 280.18 121.276 272.325 116.519 266.712C111.742 261.073 104.902 257.702 96.8507 258.507L97 260Z" fill="#B8B8B8"/>
<path d="M212 260C226.036 260 236.5 273.234 236.5 288.5C236.5 303.484 226.289 314 212 314C197.706 314 186 301.978 186 287C186 272.022 197.706 260 212 260Z" fill="#EAEAEA" stroke="#B8B8B8" stroke-width="4"/>
<path d="M207.851 258.507C207.026 258.59 206.425 259.325 206.507 260.149C206.59 260.974 207.325 261.575 208.149 261.493L208 260L207.851 258.507ZM233.5 288.5H232C232 303.659 219.754 313.878 206.712 312.015L206.5 313.5L206.288 314.985C221.246 317.122 235 305.373 235 288.5H233.5ZM208 260L208.149 261.493C215.098 260.798 221.008 263.669 225.231 268.651C229.474 273.659 232 280.804 232 288.5H233.5H235C235 280.18 232.276 272.325 227.519 266.712C222.742 261.073 215.902 257.702 207.851 258.507L208 260Z" fill="#B8B8B8"/>
<path d="M107.001 287C107.145 283.127 104.842 280.017 101.001 279.5C96.6138 278.91 93.0004 283 93 287C92.9996 291.006 95.9947 294 100.001 294C104.008 294 106.854 291.004 107.001 287Z" fill="white" stroke="#B8B8B8" stroke-width="4" stroke-linecap="round"/>
<path d="M218.001 287C218.145 283.127 215.842 280.017 212.001 279.5C207.614 278.91 204 283 204 287C204 291.006 206.995 294 211.001 294C215.008 294 217.854 291.004 218.001 287Z" fill="white" stroke="#B8B8B8" stroke-width="4" stroke-linecap="round"/>
<path d="M326.507 292C326.507 292 326.506 313.5 302 313.5C277.495 313.5 279.007 292 279.007 292H294.006H308.006H326.507Z" fill="#EAEAEA"/>
<path d="M326.507 292L328.507 292C328.507 291.47 328.296 290.961 327.921 290.586C327.546 290.211 327.037 290 326.507 290V292ZM279.007 292V290C277.956 290 277.085 290.812 277.011 291.86L279.007 292ZM326.507 292C324.507 292 324.507 291.999 324.507 291.998C324.507 291.998 324.507 291.997 324.507 291.996C324.507 291.996 324.507 291.995 324.507 291.995C324.507 291.994 324.507 291.995 324.506 291.997C324.506 292.002 324.506 292.011 324.506 292.025C324.506 292.053 324.504 292.1 324.502 292.165C324.497 292.296 324.487 292.498 324.465 292.761C324.422 293.289 324.335 294.057 324.159 294.986C323.804 296.851 323.099 299.315 321.705 301.76C318.994 306.518 313.526 311.5 302 311.5V313.5V315.5C314.981 315.5 321.766 309.732 325.181 303.74C326.851 300.81 327.677 297.899 328.088 295.733C328.295 294.646 328.399 293.735 328.452 293.086C328.478 292.762 328.492 292.502 328.499 292.317C328.503 292.225 328.504 292.152 328.505 292.098C328.506 292.072 328.506 292.05 328.506 292.034C328.506 292.025 328.506 292.019 328.506 292.013C328.506 292.01 328.506 292.008 328.506 292.005C328.506 292.004 328.506 292.003 328.507 292.003C328.507 292.001 328.507 292 326.507 292ZM302 313.5V311.5C296.172 311.5 292.047 310.224 289.111 308.433C286.177 306.643 284.306 304.264 283.103 301.856C281.892 299.433 281.362 296.984 281.139 295.122C281.028 294.196 280.995 293.428 280.989 292.902C280.986 292.639 280.99 292.437 280.994 292.306C280.997 292.241 280.999 292.193 281 292.165C281.001 292.151 281.002 292.142 281.002 292.138C281.002 292.136 281.002 292.135 281.002 292.135C281.002 292.135 281.002 292.136 281.002 292.137C281.002 292.137 281.002 292.138 281.002 292.138C281.002 292.139 281.002 292.14 279.007 292C277.011 291.86 277.011 291.861 277.011 291.862C277.011 291.863 277.011 291.864 277.011 291.865C277.011 291.867 277.011 291.87 277.011 291.873C277.01 291.878 277.01 291.885 277.009 291.893C277.008 291.91 277.007 291.931 277.006 291.958C277.003 292.011 277 292.085 276.997 292.177C276.991 292.361 276.986 292.621 276.99 292.946C276.997 293.595 277.037 294.508 277.167 295.597C277.427 297.766 278.05 300.692 279.525 303.644C281.007 306.611 283.353 309.607 287.028 311.848C290.7 314.088 295.576 315.5 302 315.5V313.5ZM279.007 292V294H294.006V292V290H279.007V292ZM294.006 292C292.109 292.632 292.109 292.633 292.11 292.634C292.11 292.634 292.11 292.635 292.11 292.636C292.11 292.637 292.111 292.638 292.111 292.639C292.112 292.642 292.113 292.645 292.114 292.648C292.117 292.655 292.119 292.663 292.123 292.672C292.129 292.692 292.138 292.716 292.149 292.747C292.171 292.807 292.201 292.889 292.241 292.989C292.319 293.189 292.434 293.465 292.589 293.792C292.894 294.439 293.367 295.314 294.031 296.2C295.338 297.943 297.61 300 301.006 300V298V296C299.403 296 298.174 295.057 297.231 293.8C296.771 293.186 296.431 292.561 296.206 292.083C296.094 291.847 296.014 291.654 295.964 291.527C295.939 291.463 295.921 291.416 295.911 291.388C295.906 291.374 295.903 291.366 295.902 291.362C295.901 291.36 295.901 291.36 295.901 291.361C295.902 291.361 295.902 291.362 295.902 291.363C295.903 291.364 295.903 291.364 295.903 291.365C295.903 291.365 295.903 291.366 295.903 291.366C295.904 291.367 295.904 291.368 294.006 292ZM294.006 292V294H308.006V292V290H294.006V292ZM308.006 292V294H326.507V292V290H308.006V292ZM301.006 298V300C304.403 300 306.674 297.943 307.981 296.2C308.646 295.314 309.119 294.439 309.424 293.792C309.578 293.465 309.694 293.189 309.772 292.989C309.812 292.889 309.842 292.807 309.864 292.747C309.875 292.716 309.884 292.692 309.89 292.672C309.893 292.663 309.896 292.655 309.899 292.648C309.9 292.645 309.901 292.642 309.902 292.639C309.902 292.638 309.902 292.637 309.903 292.636C309.903 292.635 309.903 292.634 309.903 292.634C309.904 292.633 309.904 292.632 308.006 292C306.109 291.368 306.109 291.367 306.11 291.366C306.11 291.366 306.11 291.365 306.11 291.365C306.11 291.364 306.11 291.364 306.111 291.363C306.111 291.362 306.111 291.361 306.111 291.361C306.112 291.36 306.112 291.36 306.111 291.362C306.11 291.366 306.107 291.374 306.102 291.388C306.092 291.416 306.074 291.463 306.049 291.527C305.999 291.654 305.919 291.847 305.807 292.083C305.582 292.561 305.242 293.186 304.781 293.8C303.838 295.057 302.61 296 301.006 296V298Z" fill="#B8B8B8"/>
<path d="M224.112 212.502C223.356 212.621 222.644 212.602 222 212.5V212.495C222.704 212.497 223.409 212.5 224.112 212.502C227.076 212.039 230.711 209.468 233.5 201.5C236.869 191.874 251.889 111 255 104C258.111 97 266.5 86.5 266.5 86.5L366 86C390.305 86 383.609 102.731 380.572 110.319L380.5 110.5C377.5 118 358.5 165 346.5 194C340.49 208.524 332 212 312 212.5C303.216 212.72 264.629 212.65 224.112 212.502Z" fill="#EAEAEA"/>
<path d="M292 110.5L272 187" stroke="#B8B8B8" stroke-width="4" stroke-linecap="round"/>
<path d="M337.5 110.5L309.5 186" stroke="#B8B8B8" stroke-width="4" stroke-linecap="round"/>
<path d="M269.5 86.0002C261 94 256.191 96.5 253 111.5C249.809 126.5 236.283 193.548 233.5 201.5C230 211.5 225.167 213 222 212.5L221.928 212.495M221.928 212.495C263.207 212.648 302.991 212.724 311.928 212.5C331.928 212 340.418 208.524 346.428 194C358.428 165 377.428 118 380.428 110.5L380.5 110.319C383.537 102.731 390.233 86.0002 365.928 86.0002L83.9277 86L117.428 212C117.428 212 170.824 212.306 221.928 212.495Z" stroke="#B8B8B8" stroke-width="4" stroke-linecap="round"/>
<path d="M213.13 214.274L193.281 212.265L188 232C189.285 230.041 194.5 223.5 201.5 221.5C207.015 219.924 211.29 225.032 211.875 226.679L213.13 214.274Z" fill="#B8B8B8"/>
<circle cx="373" cy="89" r="32" fill="#FF383C"/>
<path d="M372.872 103.756C370.362 103.747 368.194 103.166 366.368 102.015C364.542 100.863 363.134 99.2036 362.144 97.0355C361.155 94.8674 360.664 92.2675 360.673 89.2358C360.682 86.1951 361.177 83.6132 362.158 81.4901C363.147 79.3669 364.551 77.7521 366.368 76.6456C368.194 75.5391 370.362 74.9858 372.872 74.9858C375.382 74.9858 377.55 75.5436 379.376 76.6591C381.203 77.7656 382.611 79.3804 383.6 81.5035C384.59 83.6267 385.08 86.2041 385.071 89.2358C385.071 92.2855 384.576 94.8944 383.587 97.0625C382.597 99.2306 381.189 100.89 379.363 102.042C377.546 103.184 375.382 103.756 372.872 103.756ZM372.872 97.6562C374.168 97.6562 375.229 96.9815 376.057 95.6321C376.893 94.2737 377.307 92.1416 377.298 89.2358C377.298 87.3376 377.109 85.7857 376.732 84.5803C376.354 83.3748 375.832 82.4841 375.166 81.9084C374.5 81.3236 373.736 81.0312 372.872 81.0312C371.577 81.0312 370.52 81.688 369.701 83.0014C368.882 84.3149 368.464 86.393 368.446 89.2358C368.437 91.17 368.621 92.7623 368.999 94.0128C369.377 95.2543 369.899 96.1719 370.565 96.7656C371.239 97.3594 372.009 97.6562 372.872 97.6562Z" fill="white"/>
</svg>
