<svg width="430" height="395" viewBox="0 0 430 395" fill="none" xmlns="http://www.w3.org/2000/svg">
<path d="M232.967 349.729C270.368 349.729 304.174 352.351 328.581 356.569C340.803 358.681 350.561 361.177 357.211 363.894C360.546 365.257 362.971 366.625 364.525 367.937C366.097 369.265 366.489 370.281 366.49 370.959C366.49 371.637 366.097 372.653 364.525 373.981C362.971 375.293 360.546 376.661 357.211 378.024C350.561 380.742 340.803 383.236 328.581 385.348C304.174 389.567 270.368 392.189 232.967 392.189C195.566 392.189 161.76 389.567 137.353 385.348C125.131 383.236 115.373 380.742 108.723 378.024C105.388 376.661 102.963 375.293 101.409 373.981C99.8367 372.653 99.4436 371.637 99.4436 370.959C99.4438 370.281 99.837 369.265 101.409 367.937C102.963 366.625 105.388 365.257 108.723 363.894C115.373 361.177 125.131 358.681 137.353 356.569C161.76 352.351 195.566 349.729 232.967 349.729Z" fill="#EAEAEA" stroke="#B8B8B8" stroke-width="4.46939"/>
<path d="M233.526 357.551C253.802 357.551 272.104 358.984 285.287 361.281C291.898 362.433 297.113 363.784 300.624 365.23C302.39 365.958 303.596 366.658 304.324 367.277C304.68 367.581 304.868 367.82 304.959 367.978C305.003 368.053 305.021 368.103 305.029 368.129C305.036 368.153 305.036 368.164 305.036 368.166C305.036 368.168 305.036 368.179 305.029 368.203C305.021 368.229 305.003 368.28 304.959 368.354C304.868 368.512 304.68 368.75 304.324 369.054C303.596 369.673 302.39 370.374 300.624 371.102C297.113 372.548 291.898 373.899 285.287 375.051C272.104 377.348 253.802 378.78 233.526 378.78C213.25 378.78 194.948 377.348 181.764 375.051C175.154 373.899 169.938 372.548 166.427 371.102C164.662 370.374 163.456 369.673 162.728 369.054C162.371 368.75 162.184 368.512 162.092 368.354C162.048 368.279 162.029 368.229 162.022 368.203C162.015 368.179 162.015 368.168 162.015 368.166C162.015 368.164 162.015 368.153 162.022 368.129C162.029 368.103 162.048 368.053 162.092 367.978C162.184 367.82 162.371 367.581 162.728 367.277C163.456 366.658 164.662 365.958 166.427 365.23C169.938 363.784 175.154 362.433 181.764 361.281C194.948 358.984 213.25 357.551 233.526 357.551Z" fill="#EAEAEE" stroke="#B8B8B8" stroke-width="4.46939"/>
<circle cx="96.0918" cy="50.2806" r="12.2908" fill="#EAEAEA"/>
<circle cx="32.403" cy="230.174" r="13.4082" fill="#EAEAEA"/>
<circle cx="359.227" cy="296.656" r="21.7883" fill="#EAEAEA"/>
<circle cx="316.768" cy="321.237" r="10.6148" fill="#EAEAEA"/>
<path d="M277.689 16.2428C277.041 16.1051 277.041 15.1805 277.689 15.0428L287.483 12.96C287.719 12.9098 287.904 12.7258 287.955 12.4899L290.064 2.76466C290.204 2.12007 291.123 2.12007 291.263 2.76466L293.372 12.4899C293.423 12.7258 293.608 12.9098 293.844 12.96L303.638 15.0428C304.286 15.1805 304.286 16.1051 303.638 16.2428L293.844 18.3256C293.608 18.3758 293.423 18.5598 293.372 18.7956L291.263 28.5209C291.123 29.1655 290.204 29.1655 290.064 28.5209L287.955 18.7956C287.904 18.5598 287.719 18.3758 287.483 18.3256L277.689 16.2428Z" fill="#B8B8B8"/>
<path d="M92.9889 280.032C93.2389 278.85 94.9251 278.85 95.1751 280.032L98.9102 297.678C99.0012 298.108 99.336 298.444 99.7655 298.538L117.229 302.342C118.402 302.598 118.402 304.27 117.229 304.526L99.7655 308.33C99.336 308.424 99.0012 308.761 98.9102 309.191L95.1751 326.836C94.9251 328.018 93.2389 328.018 92.9889 326.836L89.2538 309.191C89.1627 308.761 88.828 308.424 88.3985 308.33L70.9349 304.526C69.7622 304.27 69.7622 302.598 70.9349 302.342L88.3985 298.538C88.828 298.444 89.1627 298.108 89.2538 297.678L92.9889 280.032Z" fill="#B8B8B8"/>
<path d="M409.334 151.537C409.584 150.356 411.27 150.356 411.52 151.537L413.699 161.831C413.79 162.261 414.125 162.598 414.555 162.691L424.772 164.917C425.944 165.173 425.944 166.845 424.772 167.101L414.555 169.326C414.125 169.42 413.79 169.757 413.699 170.187L411.52 180.481C411.27 181.662 409.584 181.662 409.334 180.481L407.155 170.187C407.064 169.757 406.729 169.42 406.3 169.326L396.083 167.101C394.91 166.845 394.91 165.173 396.083 164.917L406.3 162.691C406.729 162.598 407.064 162.261 407.155 161.831L409.334 151.537Z" fill="#B8B8B8"/>
<path d="M18.2627 120.251C18.5127 119.07 20.1989 119.07 20.4489 120.251L22.6279 130.545C22.7189 130.975 23.0537 131.312 23.4832 131.405L33.7002 133.631C34.8729 133.887 34.8729 135.559 33.7002 135.815L23.4832 138.041C23.0537 138.134 22.7189 138.471 22.6279 138.901L20.4489 149.195C20.1989 150.376 18.5127 150.376 18.2627 149.195L16.0837 138.901C15.9927 138.471 15.658 138.134 15.2284 138.041L5.01144 135.815C3.83876 135.559 3.83877 133.887 5.01145 133.631L15.2284 131.405C15.658 131.312 15.9927 130.975 16.0837 130.545L18.2627 120.251Z" fill="#B8B8B8"/>
<path d="M297.041 162.035C297.041 103.933 251.587 104.889 247.319 105.609C244.362 106.108 241.561 106.746 238.906 107.505C199.93 118.658 192.674 155.965 192.01 162.035C189.439 185.52 193.652 200.738 200.741 210.533C215.684 231.18 243.406 227.736 247.319 226.841C294.605 216.027 297.041 170.774 297.041 162.035Z" fill="#EAEAEA"/>
<path d="M316.768 83.4743C305.916 71.9145 290.858 63.747 278.034 59.3408C270.727 56.8301 264.145 55.5406 259.481 55.5406C212.809 55.5411 188.572 79.7317 172.071 101.352C155.57 122.972 144.62 159.454 146.931 192.974C149.242 226.495 173.375 265.23 185.48 285.156C185.48 285.156 230.358 362.632 232.967 365.605C235.575 368.578 239.112 370.401 241.162 370.401C245.258 370.401 247.196 370.401 250.844 365.605C254.493 360.809 301.498 272.486 301.498 272.486C301.498 272.486 342.467 202.439 342.467 162.035C342.467 130.626 338.265 106.374 316.768 83.4743Z" fill="#EAEAEA"/>
<path d="M238.906 107.505C238.906 107.505 262.915 130.55 248.493 169.657C234.07 208.764 200.741 210.533 200.741 210.533M238.906 107.505C199.93 118.658 192.674 155.965 192.01 162.035C189.439 185.52 193.652 200.738 200.741 210.533M238.906 107.505C241.561 106.746 244.362 106.108 247.319 105.609C251.587 104.889 297.041 103.933 297.041 162.035C297.041 170.774 294.605 216.027 247.319 226.841C243.406 227.736 215.684 231.18 200.741 210.533M278.034 59.3408C270.727 56.8301 264.145 55.5406 259.481 55.5406C212.809 55.5411 188.572 79.7317 172.071 101.352C155.57 122.972 144.62 159.454 146.931 192.974C149.242 226.495 173.375 265.23 185.48 285.156C185.48 285.156 230.358 362.632 232.967 365.605C235.575 368.578 239.112 370.401 241.162 370.401M278.034 59.3408C290.858 63.747 305.916 71.9145 316.768 83.4743C338.265 106.374 342.467 130.626 342.467 162.035C342.467 202.439 301.498 272.486 301.498 272.486C301.498 272.486 254.493 360.809 250.844 365.605C247.196 370.401 245.258 370.401 241.162 370.401M278.034 59.3408C278.034 59.3408 260.342 44.6271 227.38 44.1352C189.949 43.5765 155.918 70.0022 139.417 91.6225C122.916 113.243 111.965 149.725 114.277 183.245C116.588 216.765 140.721 255.5 152.825 275.426C152.825 275.426 196.709 351.965 200.312 355.875C203.916 359.786 241.162 370.401 241.162 370.401" stroke="#B8B8B8" stroke-width="4.46939" stroke-linecap="round"/>
<path d="M312.919 101.269C330.634 127.206 331.051 151.815 326.215 182.85" stroke="#B8B8B8" stroke-width="4.46939" stroke-linecap="round"/>
<path d="M322.913 195.536C322.727 197.025 321.796 201.458 319.561 207.268" stroke="#B8B8B8" stroke-width="4.46939" stroke-linecap="round"/>
<path d="M297.422 162.742C297.422 104.639 251.968 105.596 247.7 106.316C244.743 106.814 241.942 107.452 239.287 108.212C239.287 108.212 263.296 131.256 248.874 170.363C234.451 209.47 201.122 211.24 201.122 211.24C216.065 231.887 243.787 228.443 247.7 227.548C294.986 216.733 297.422 171.481 297.422 162.742Z" fill="#B8B8B8" stroke="#B8B8B8" stroke-width="4.46939" stroke-linecap="round"/>
<path d="M248.309 170.534C262.731 131.427 238.722 108.383 238.722 108.383C199.746 119.535 192.49 156.842 191.826 162.912C189.255 186.397 194.033 201.383 201.122 211.178C201.122 211.178 233.886 209.641 248.309 170.534Z" fill="white" stroke="#B8B8B8" stroke-width="4.46939" stroke-linecap="round"/>
<path d="M184.921 284.606C184.921 284.606 229.8 362.081 232.408 365.055C234.03 366.903 236.658 368.519 238.817 369.478C240.748 370.06 241.906 370.4 241.906 370.4C241.272 370.4 240.131 370.061 238.817 369.478C229.689 366.723 203.287 358.553 200.312 355.325C196.709 351.415 152.825 274.876 152.825 274.876C140.721 254.95 116.588 216.215 114.277 182.695C111.965 149.175 122.916 112.693 139.417 91.0725C155.918 69.4522 189.949 43.0265 227.38 43.5851C260.342 44.0771 277.475 58.7907 277.475 58.7907C270.168 56.28 263.587 54.9906 258.922 54.9906C212.25 54.9911 188.014 79.1816 171.513 100.802C155.012 122.422 144.061 158.904 146.372 192.424C148.684 225.945 172.816 264.68 184.921 284.606Z" fill="#EAEAEE"/>
<path d="M232.408 365.055L234.088 363.581L234.088 363.581L232.408 365.055ZM184.921 284.606L186.855 283.485L186.843 283.465L186.831 283.445L184.921 284.606ZM146.372 192.424L144.143 192.578L144.143 192.578L146.372 192.424ZM171.513 100.802L173.289 102.158L173.289 102.158L171.513 100.802ZM258.922 54.9906L258.922 52.7559L258.922 52.7559L258.922 54.9906ZM277.475 58.7907L276.749 60.9042L278.931 57.0954L277.475 58.7907ZM200.312 355.325L201.956 353.811L201.956 353.811L200.312 355.325ZM152.825 274.876L154.764 273.765L154.75 273.74L154.735 273.716L152.825 274.876ZM114.277 182.695L116.506 182.541L116.506 182.541L114.277 182.695ZM139.417 91.0725L141.194 92.4283L141.194 92.4283L139.417 91.0725ZM227.38 43.5851L227.413 41.3507L227.38 43.5851ZM241.906 370.4V372.635C243.017 372.635 243.959 371.819 244.118 370.719C244.276 369.619 243.602 368.57 242.536 368.256L241.906 370.4ZM232.408 365.055L234.088 363.581C234.1 363.595 234.042 363.525 233.881 363.293C233.738 363.085 233.552 362.805 233.322 362.449C232.863 361.739 232.258 360.77 231.523 359.574C230.054 357.184 228.093 353.925 225.808 350.087C221.238 342.413 215.387 332.456 209.615 322.587C203.844 312.719 198.154 302.944 193.906 295.635C191.782 291.98 190.019 288.943 188.787 286.819C188.171 285.757 187.688 284.924 187.359 284.356C187.194 284.072 187.068 283.854 186.983 283.707C186.941 283.634 186.909 283.579 186.887 283.541C186.876 283.523 186.868 283.509 186.863 283.499C186.86 283.495 186.858 283.491 186.857 283.489C186.856 283.488 186.855 283.487 186.855 283.486C186.855 283.486 186.855 283.485 184.921 284.606C182.987 285.726 182.987 285.726 182.988 285.727C182.988 285.727 182.989 285.728 182.989 285.729C182.991 285.732 182.993 285.735 182.995 285.74C183.001 285.749 183.009 285.763 183.02 285.782C183.041 285.819 183.074 285.875 183.116 285.948C183.201 286.095 183.327 286.313 183.492 286.597C183.822 287.165 184.305 287.999 184.921 289.062C186.154 291.186 187.917 294.225 190.042 297.88C194.291 305.191 199.983 314.971 205.757 324.843C211.531 334.715 217.389 344.684 221.968 352.374C224.257 356.217 226.23 359.498 227.715 361.914C228.457 363.121 229.083 364.122 229.568 364.874C230.01 365.559 230.434 366.193 230.728 366.528L232.408 365.055ZM184.921 284.606L186.831 283.445C180.767 273.463 171.768 258.894 163.99 242.648C156.198 226.374 149.729 208.612 148.602 192.271L146.372 192.424L144.143 192.578C145.328 209.757 152.08 228.123 159.959 244.578C167.85 261.06 176.97 275.822 183.011 285.766L184.921 284.606ZM146.372 192.424L148.602 192.271C146.324 159.237 157.149 123.305 173.289 102.158L171.513 100.802L169.736 99.4461C152.874 121.54 141.798 158.571 144.143 192.578L146.372 192.424ZM171.513 100.802L173.289 102.158C189.591 80.7989 213.247 57.2257 258.923 57.2253L258.922 54.9906L258.922 52.7559C211.254 52.7564 186.437 77.5643 169.736 99.4461L171.513 100.802ZM258.922 54.9906L258.923 57.2253C263.247 57.2252 269.568 58.4366 276.749 60.9042L277.475 58.7907L278.202 56.6773C270.769 54.1234 263.927 52.7559 258.922 52.7559L258.922 54.9906ZM200.312 355.325L201.956 353.811C201.956 353.811 201.948 353.803 201.932 353.784C201.917 353.765 201.896 353.739 201.87 353.706C201.817 353.639 201.749 353.55 201.667 353.436C201.501 353.208 201.293 352.908 201.042 352.534C200.541 351.786 199.899 350.785 199.132 349.56C197.599 347.112 195.598 343.816 193.29 339.958C188.676 332.244 182.858 322.32 177.149 312.51C171.44 302.702 165.844 293.015 161.675 285.781C159.59 282.163 157.862 279.159 156.656 277.059C156.052 276.009 155.579 275.185 155.257 274.624C155.096 274.344 154.973 274.129 154.89 273.984C154.848 273.911 154.817 273.857 154.796 273.82C154.785 273.801 154.777 273.788 154.772 273.778C154.769 273.774 154.767 273.77 154.766 273.768C154.765 273.767 154.765 273.766 154.764 273.765C154.764 273.765 154.764 273.765 152.825 274.876C150.887 275.988 150.887 275.988 150.887 275.989C150.887 275.989 150.888 275.99 150.889 275.991C150.89 275.994 150.892 275.997 150.895 276.002C150.9 276.011 150.908 276.025 150.919 276.043C150.94 276.08 150.971 276.135 151.013 276.208C151.096 276.353 151.22 276.568 151.381 276.849C151.703 277.411 152.177 278.235 152.78 279.286C153.988 281.387 155.717 284.393 157.802 288.012C161.974 295.25 167.573 304.943 173.286 314.758C178.998 324.572 184.827 334.515 189.455 342.252C191.768 346.12 193.787 349.445 195.343 351.932C196.121 353.174 196.791 354.218 197.329 355.021C197.832 355.772 198.307 356.447 198.669 356.839L200.312 355.325ZM152.825 274.876L154.735 273.716C148.671 263.734 139.673 249.165 131.894 232.918C124.102 216.644 117.633 198.882 116.506 182.541L114.277 182.695L112.047 182.849C113.232 200.028 119.985 218.393 127.863 234.848C135.755 251.331 144.875 266.092 150.915 276.036L152.825 274.876ZM114.277 182.695L116.506 182.541C114.228 149.508 125.054 113.575 141.194 92.4283L139.417 91.0725L137.641 89.7167C120.778 111.81 109.702 148.842 112.047 182.849L114.277 182.695ZM139.417 91.0725L141.194 92.4283C157.469 71.1029 190.905 45.2757 227.347 45.8196L227.38 43.5851L227.413 41.3507C188.993 40.7772 154.367 67.8014 137.641 89.7167L139.417 91.0725ZM200.312 355.325L198.669 356.839C199.328 357.555 200.381 358.187 201.408 358.726C202.515 359.307 203.894 359.931 205.442 360.574C208.542 361.864 212.457 363.291 216.53 364.692C224.685 367.497 233.6 370.237 238.172 371.617L238.817 369.478L239.463 367.338C234.907 365.964 226.057 363.242 217.984 360.466C213.944 359.076 210.13 357.684 207.158 356.448C205.67 355.828 204.427 355.262 203.485 354.768C203.015 354.521 202.645 354.305 202.369 354.123C202.232 354.032 202.13 353.957 202.057 353.898C201.981 353.838 201.953 353.808 201.956 353.811L200.312 355.325ZM238.817 369.478L238.172 371.617C239.14 371.909 239.915 372.141 240.448 372.299C240.715 372.379 240.921 372.44 241.061 372.481C241.131 372.502 241.184 372.518 241.22 372.528C241.238 372.534 241.252 372.538 241.261 372.54C241.266 372.542 241.269 372.543 241.272 372.543C241.273 372.544 241.274 372.544 241.274 372.544C241.275 372.544 241.275 372.544 241.275 372.544C241.275 372.544 241.275 372.544 241.275 372.544C241.275 372.544 241.275 372.544 241.275 372.544C241.275 372.544 241.275 372.544 241.906 370.4C242.536 368.256 242.536 368.256 242.536 368.256C242.536 368.256 242.536 368.256 242.536 368.256C242.536 368.256 242.536 368.256 242.536 368.256C242.535 368.256 242.535 368.256 242.535 368.256C242.535 368.256 242.534 368.256 242.533 368.256C242.531 368.255 242.527 368.254 242.523 368.253C242.514 368.25 242.501 368.246 242.484 368.241C242.449 368.231 242.397 368.215 242.328 368.195C242.19 368.154 241.987 368.094 241.723 368.016C241.194 367.858 240.425 367.629 239.463 367.338L238.817 369.478ZM227.38 43.5851L227.347 45.8196C243.493 46.0606 255.72 49.7826 263.88 53.4141C267.962 55.2308 271.029 57.0262 273.06 58.3544C274.076 59.0184 274.832 59.5654 275.326 59.9395C275.573 60.1265 275.755 60.2702 275.871 60.3637C275.928 60.4104 275.97 60.4445 275.995 60.4652C276.007 60.4756 276.015 60.4826 276.02 60.4861C276.022 60.4878 276.023 60.4887 276.023 60.4887C276.023 60.4887 276.022 60.4885 276.022 60.4881C276.022 60.4879 276.021 60.4874 276.021 60.4873C276.02 60.4867 276.02 60.4861 277.475 58.7907C278.931 57.0954 278.931 57.0947 278.93 57.0939C278.929 57.0936 278.928 57.0927 278.928 57.0921C278.926 57.0907 278.924 57.0892 278.922 57.0874C278.918 57.0838 278.913 57.0794 278.906 57.0741C278.894 57.0634 278.877 57.0493 278.856 57.0318C278.814 56.9968 278.755 56.9483 278.679 56.8871C278.528 56.7648 278.309 56.5919 278.023 56.3756C277.452 55.9431 276.612 55.3368 275.506 54.6137C273.295 53.1677 270.018 51.254 265.697 49.3308C257.05 45.4824 244.229 41.6017 227.413 41.3507L227.38 43.5851ZM241.906 370.4V368.166C241.913 368.166 241.715 368.153 241.256 368.016C240.837 367.892 240.314 367.697 239.724 367.435L238.817 369.478L237.911 371.52C238.634 371.841 239.338 372.108 239.977 372.299C240.575 372.478 241.264 372.635 241.906 372.635V370.4ZM238.817 369.478L239.724 367.435C237.722 366.547 235.415 365.093 234.088 363.581L232.408 365.055L230.728 366.528C232.645 368.713 235.594 370.492 237.911 371.52L238.817 369.478Z" fill="#B8B8B8"/>
<circle cx="332.969" cy="91.6225" r="35.7551" fill="#FF383C"/>
<path d="M332.712 74.8623V108.383M349.73 91.3478H332.969H316.209" stroke="white" stroke-width="6.70408" stroke-linecap="round"/>
</svg>
